# xmcd
#
# Track frame offsets: 
#        150
#        22782
#        41855
#        62528
#        79086
#        95151
#        114277
#        136171
#        154583
#        169487
#        187217
#        204010
#        221537
#        235997
#
# Disc length: 3375 seconds
#
# Revision: 1
# Processed by: cddbd v1.5.2PL0 Copyright (c) Steve Scherf et al.
# Submitted via: ExactAudioCopy v1.0b3
#
DISCID=b90d2d0e
DTITLE=Various Artist - Bachata  - Hits (Vol. 2)
DYEAR=2002
DGENRE=Bachata
TTITLE0=Antonny - Clavado en un bar
TTITLE1=Rubby Pérez - Volveré
TTITLE2=Raulin Rodriguez - Arráncame la vida
TTITLE3=Zacarias Ferreira - Dame un beso
TTITLE4=José Manuel - Con una pinta asi
TTITLE5=Andy Andy - Nunca te olvidaré
TTITLE6=Elvis Martinez - En Bancarrota
TTITLE7=Danny and Junior - Triste buscando amor
TTITLE8=Nelson Herrera - Secreto de amor
TTITLE9=Pedro Pablo - Cada dia más
TTITLE10=Jonny Reyes - Que será de mi
TTITLE11=Leonardo Valerio - Amor impossible
TTITLE12=Marcos Jeréz - Linda
TTITLE13=Freddy Rey - Debe amarla senor
EXTD=
EXTT0=
EXTT1=
EXTT2=
EXTT3=
EXTT4=
EXTT5=
EXTT6=
EXTT7=
EXTT8=
EXTT9=
EXTT10=
EXTT11=
EXTT12=
EXTT13=
PLAYORDER=
